<?xml version="1.0" encoding="UTF-8" ?>
<svg version="1.1" xmlns="http://www.w3.org/2000/svg" width="256" height="256">
    <path d="M0 0 C2.25761284 0.01610141 4.51343653 0.00004327 6.77099609 -0.01904297 C25.61604069 -0.04588081 43.66830782 4.52652421 57.97802734 17.52001953 C70.23113596 30.39115775 77.36898109 46.08014227 78.19677734 63.89111328 C78.04279015 68.34940919 76.78831333 71.02551774 73.75927734 74.39111328 C70.54274282 76.43417059 67.99895807 76.64388728 64.2247467 76.65180969 C63.0989772 76.6588945 61.9732077 76.66597931 60.81332397 76.67327881 C59.58256134 76.67080139 58.35179871 76.66832397 57.08374023 76.66577148 C55.13444359 76.67343788 55.13444359 76.67343788 53.14576721 76.68125916 C49.58376986 76.69464613 46.02187864 76.69522818 42.45986104 76.69269586 C39.48518503 76.69162595 36.51053047 76.69651002 33.53585905 76.70130128 C26.51762342 76.7123954 19.49944132 76.7128344 12.48120117 76.70678711 C5.24321095 76.70074633 -1.99458492 76.71306108 -9.23254198 76.73435718 C-15.44922243 76.7519752 -21.66584103 76.75797423 -27.88254553 76.75471944 C-31.59444403 76.75290676 -35.30620388 76.75554109 -39.01807976 76.76943398 C-43.15744513 76.78434727 -47.2964151 76.77504048 -51.43579102 76.76342773 C-52.66452942 76.77107147 -53.89326782 76.77871521 -55.15924072 76.78659058 C-56.28783005 76.77957626 -57.41641937 76.77256195 -58.57920837 76.76533508 C-60.04674513 76.7655867 -60.04674513 76.7655867 -61.5439291 76.76584339 C-64.73136542 76.32293653 -66.6074753 75.20074138 -69.24072266 73.39111328 C-69.82982422 72.99537109 -70.41892578 72.59962891 -71.02587891 72.19189453 C-73.01891926 69.2375807 -72.72601149 66.02016769 -72.67822266 62.57861328 C-72.67064941 61.82177246 -72.66307617 61.06493164 -72.65527344 60.28515625 C-72.13794975 42.28455754 -63.75603248 28.64312767 -51.24072266 16.39111328 C-36.89818385 3.01800084 -18.91265135 -0.15989452 0 0 Z " fill="#359688" transform="translate(168.24072265625,137.60888671875)" />
    <path d="M0 0 C9.57362551 7.58525713 16.0684556 17.77708636 17.5390625 30.01171875 C18.65038825 43.32778259 14.69579863 54.71768706 6.4765625 65.13671875 C-0.51902117 72.7905302 -10.556873 77.81216752 -20.9140625 78.34765625 C-34.16014355 78.59703938 -44.22029515 77.01041085 -54.4609375 68.01171875 C-55.06679687 67.51027344 -55.67265625 67.00882812 -56.296875 66.4921875 C-62.78460873 60.67022557 -67.86838117 51.78647659 -68.63793945 42.98803711 C-69.06609883 28.06045647 -67.62146316 16.73232512 -57.4609375 5.01171875 C-41.32388131 -10.13853904 -18.56637466 -12.76103849 0 0 Z " fill="#359688" transform="translate(196.4609375,49.98828125)" />
    <path d="M0 0 C9.57362551 7.58525713 16.0684556 17.77708636 17.5390625 30.01171875 C18.65038825 43.32778259 14.69579863 54.71768706 6.4765625 65.13671875 C-0.51902117 72.7905302 -10.556873 77.81216752 -20.9140625 78.34765625 C-34.16014355 78.59703938 -44.22029515 77.01041085 -54.4609375 68.01171875 C-55.06679688 67.51027344 -55.67265625 67.00882812 -56.296875 66.4921875 C-62.78460873 60.67022557 -67.86838117 51.78647659 -68.63793945 42.98803711 C-69.06609883 28.06045647 -67.62146316 16.73232512 -57.4609375 5.01171875 C-41.32388131 -10.13853904 -18.56637466 -12.76103849 0 0 Z " fill="#359688" transform="translate(100.4609375,49.98828125)" />
    <path d="M0 0 C0 4.65531245 -0.44552305 4.87710848 -3.5625 8 C-17.22915863 22.77737647 -23.54993269 43.34136491 -23.203125 63.25390625 C-22.96076689 66.53040144 -22.47582852 69.75001492 -22 73 C-29.58889362 73.09286979 -37.17772797 73.16385075 -44.76706123 73.20724869 C-48.29152694 73.22808269 -51.81560253 73.25632202 -55.33984375 73.30175781 C-59.39587043 73.35371956 -63.45149029 73.37297967 -67.5078125 73.390625 C-68.76739777 73.41127014 -70.02698303 73.43191528 -71.32473755 73.45318604 C-82.22128008 73.45597413 -82.22128008 73.45597413 -87 69 C-91.01942304 63.56332375 -89.63426208 54.34225577 -88.6953125 47.9140625 C-85.46518734 30.44501829 -76.68215152 17.50649562 -62.5859375 6.75 C-44.58213613 -5.43384141 -20.3516083 -5.74633646 0 0 Z " fill="#359688" transform="translate(99,141)" />
</svg>
