<?xml version="1.0" encoding="UTF-8" ?>
<svg version="1.1" xmlns="http://www.w3.org/2000/svg" width="256" height="256">
    <path d="M0 0 C1.5890427 1.49395038 3.17288588 2.99346241 4.75 4.5 C5.36488281 5.04011719 5.97976562 5.58023438 6.61328125 6.13671875 C21.05782188 19.31943744 29.60747249 41.07587865 31.0234375 60.19140625 C31.05695313 61.46886719 31.09046875 62.74632812 31.125 64.0625 C31.17398438 65.34253906 31.22296875 66.62257813 31.2734375 67.94140625 C30.60462942 72.48830296 29.30394908 73.66102395 25.75 76.5 C22.52500916 77.13199902 22.52500916 77.13199902 18.80444336 77.14164734 C18.11766227 77.15015286 17.43088118 77.15865838 16.72328854 77.16742164 C14.42828066 77.18965874 12.13489933 77.17626627 9.83984375 77.1628418 C8.19205567 77.17125644 6.54427722 77.18178221 4.89651489 77.19425964 C0.42537281 77.22132021 -4.04521156 77.21660407 -8.51639938 77.20455909 C-12.24917913 77.19742976 -15.98185561 77.20592558 -19.71462727 77.21446449 C-28.51980697 77.23441973 -37.32471518 77.22884354 -46.12988281 77.20678711 C-55.21476624 77.18441674 -64.29893935 77.20202928 -73.38375568 77.23983639 C-81.18434981 77.27105943 -88.98472391 77.27898978 -96.78537273 77.26788265 C-101.44415463 77.26139196 -106.10252647 77.26341503 -110.76126099 77.28720665 C-115.14135832 77.30843638 -119.5204521 77.30051094 -123.90048599 77.27011299 C-125.50771506 77.26377796 -127.11502181 77.26766497 -128.72219467 77.28252411 C-130.91743057 77.30117505 -133.1093724 77.28283362 -135.30444336 77.25517273 C-136.53223007 77.25420939 -137.76001678 77.25324606 -139.02500916 77.25225353 C-143.6229489 76.17974927 -144.68125692 74.41376389 -147.25 70.5 C-147.56967839 67.5833153 -147.61693122 65.47259778 -147.3125 62.625 C-147.24748291 61.8832251 -147.18246582 61.1414502 -147.11547852 60.37719727 C-145.67086083 46.0780591 -141.32234323 33.96595262 -134.25 21.5 C-133.76660156 20.64792969 -133.28320312 19.79585937 -132.78515625 18.91796875 C-120.9197936 -0.16978855 -102.12196169 -12.53802787 -80.75390625 -18.68359375 C-52.38881906 -25.29262744 -22.10065191 -19.63018629 0 0 Z " fill="#489E65" transform="translate(147.25,161.5)" />
    <path d="M0 0 C10.07922074 8.56871082 17.1450934 19.43698745 18.35546875 32.81835938 C19.33455114 47.88224124 15.80484866 60.31603508 6.28515625 72.25 C-1.986329 81.33482239 -13.97963298 87.331268 -26.25 88.0859375 C-42.03088647 88.49871723 -55.01615772 84.27333643 -66.5625 73.32421875 C-75.68133125 63.43233779 -80.23152596 50.04931612 -80.03125 36.7109375 C-79.08913667 24.04474721 -74.28095987 11.61925091 -64.8203125 2.875 C-45.6956725 -12.52278708 -20.30061629 -15.29575521 0 0 Z " fill="#499E65" transform="translate(119.8203125,40.125)" />
    <path d="M0 0 C17.04372204 -0.64580825 33.7089544 5.82519409 46.5703125 16.9140625 C59.43588753 29.82454355 66.00218632 45.70798535 67.30859375 63.72265625 C66.80456042 67.18788537 66.04483408 69.27005708 63.71621704 71.90533447 C59.36540676 74.76726823 53.63862393 73.87081973 48.6328125 73.74609375 C46.7123687 73.73335922 46.7123687 73.73335922 44.75312805 73.72036743 C41.36091947 73.69753533 37.97026987 73.63866697 34.57867432 73.57214355 C31.11321094 73.5105958 27.64749385 73.48332618 24.18164062 73.453125 C17.38995097 73.38699516 10.59941365 73.28660689 3.80859375 73.16015625 C3.646474 72.57080795 3.48435425 71.98145966 3.31732178 71.37425232 C2.56528738 68.65402839 1.80418464 65.93641827 1.04296875 63.21875 C0.78821777 62.29203491 0.5334668 61.36531982 0.27099609 60.41052246 C-3.9918792 45.26801918 -11.13436754 30.07856682 -22.48828125 18.8984375 C-24.19140625 17.16015625 -24.19140625 17.16015625 -24.19140625 15.16015625 C-24.81015625 14.91265625 -25.42890625 14.66515625 -26.06640625 14.41015625 C-28.56620828 12.93968447 -29.02456647 11.74612549 -30.19140625 9.16015625 C-20.35860061 3.86717789 -11.10987131 0.81195138 0 0 Z " fill="#489E65" transform="translate(189.19140625,140.83984375)" />
    <path d="M0 0 C7.38075512 6.21537273 12.69827318 13.54979908 14.5625 23.1875 C15.52729096 35.60325257 13.6468303 45.50864714 5.546875 55.18359375 C2.24530951 58.51765497 -1.3337595 60.94124204 -5.4375 63.1875 C-6.02789062 63.5278125 -6.61828125 63.868125 -7.2265625 64.21875 C-15.35884122 68.08785177 -27.02927392 67.35205416 -35.375 64.625 C-44.51166973 60.72302376 -51.60458269 54.59883917 -55.625 45.5 C-59.56496845 34.99341746 -59.97624366 24.57883417 -55.4375 14.1875 C-50.23428628 4.45906707 -42.86421409 -1.86983794 -32.46875 -5.5 C-21.42053824 -8.65663193 -9.427409 -6.7364436 0 0 Z " fill="#489E65" transform="translate(213.4375,65.8125)" />
</svg>